<?xml version="1.0" encoding="UTF-8" standalone="no"?>
<svg
   width="512"
   height="512"
   viewBox="0 0 512 512"
   version="1.1"
   id="svg2"
   sodipodi:docname="logo.svg"
   inkscape:version="1.4.2 (ebf0e940d0, 2025-05-08)"
   inkscape:export-filename="logo.png"
   inkscape:export-xdpi="96"
   inkscape:export-ydpi="96"
   xmlns:inkscape="http://www.inkscape.org/namespaces/inkscape"
   xmlns:sodipodi="http://sodipodi.sourceforge.net/DTD/sodipodi-0.dtd"
   xmlns:xlink="http://www.w3.org/1999/xlink"
   xmlns="http://www.w3.org/2000/svg"
   xmlns:svg="http://www.w3.org/2000/svg">
  <defs
     id="defs2">
    <linearGradient
       id="linearGradient3"
       inkscape:collect="always">
      <stop
         style="stop-color:#34c685;stop-opacity:0.99995178;"
         offset="0"
         id="stop3" />
      <stop
         style="stop-color:#9fd7be;stop-opacity:0.99995178;"
         offset="1"
         id="stop4" />
    </linearGradient>
    <linearGradient
       inkscape:collect="always"
       xlink:href="#linearGradient3"
       id="linearGradient4"
       x1="11.9965"
       y1="3.4994888"
       x2="11.9965"
       y2="22.000538"
       gradientUnits="userSpaceOnUse" />
  </defs>
  <sodipodi:namedview
     id="namedview2"
     pagecolor="#ffffff"
     bordercolor="#111111"
     borderopacity="1"
     inkscape:showpageshadow="0"
     inkscape:pageopacity="0"
     inkscape:pagecheckerboard="1"
     inkscape:deskcolor="#d1d1d1"
     inkscape:zoom="1"
     inkscape:cx="4"
     inkscape:cy="38.5"
     inkscape:window-width="2156"
     inkscape:window-height="1884"
     inkscape:window-x="6000"
     inkscape:window-y="2434"
     inkscape:window-maximized="1"
     inkscape:current-layer="svg2" />
  <g
     fill="none"
     stroke="currentColor"
     stroke-linecap="round"
     stroke-linejoin="round"
     stroke-width="1.5"
     id="g2"
     style="fill:#42b883;fill-opacity:1;stroke-width:1.0374;stroke-dasharray:none"
     transform="matrix(20.657545,0,0,20.657545,9.701996,3.109219)">
    <path
       d="M 7.5,3.5 C 5.944,3.547 5.017,3.72 4.375,4.362 3.496,5.242 3.496,6.657 3.496,9.488 v 6.506 c 0,2.832 0,4.247 0.879,5.127 C 5.253,22 6.668,22 9.496,22 h 5 c 2.829,0 4.243,0 5.121,-0.88 0.88,-0.879 0.88,-2.294 0.88,-5.126 V 9.488 c 0,-2.83 0,-4.246 -0.88,-5.126 C 18.976,3.72 18.048,3.547 16.492,3.5"
       id="path1"
       style="fill:url(#linearGradient4);fill-opacity:1;stroke-width:1.0374;stroke-dasharray:none" />
    <path
       d="M 7.496,3.75 C 7.496,2.784 8.28,2 9.246,2 h 5.5 c 2.333332,0 2.333332,3.5 0,3.5 h -5.5 C 8.2795017,5.5 7.496,4.7164983 7.496,3.75"
       id="path2"
       style="fill:#fffffd;fill-opacity:1;stroke-width:1.0374;stroke-dasharray:none"
       sodipodi:nodetypes="cssssc" />
  </g>
  <path
     d="m 291.20798,221.23413 h 72.30141 m -206.57544,20.65754 c 0,0 10.32877,0 20.65755,20.65755 0,0 32.80417,-51.64387 61.97262,-61.97264 m 51.64386,144.60282 h 72.30141 m -185.91789,0 h 20.65755"
     style="fill:none;fill-opacity:1;stroke:#000000;stroke-width:20.6575;stroke-linecap:round;stroke-linejoin:round;stroke-opacity:1;paint-order:normal"
     id="path1-7" />
</svg>
