<?xml version="1.0" encoding="UTF-8" standalone="no"?>
<svg
   width="24"
   height="24"
   viewBox="0 0 24 24"
   version="1.1"
   id="svg2"
   sodipodi:docname="logo.svg"
   inkscape:version="1.4.2 (ebf0e940d0, 2025-05-08)"
   inkscape:export-filename="logo.png"
   inkscape:export-xdpi="2048"
   inkscape:export-ydpi="2048"
   xmlns:inkscape="http://www.inkscape.org/namespaces/inkscape"
   xmlns:sodipodi="http://sodipodi.sourceforge.net/DTD/sodipodi-0.dtd"
   xmlns:xlink="http://www.w3.org/1999/xlink"
   xmlns="http://www.w3.org/2000/svg"
   xmlns:svg="http://www.w3.org/2000/svg">
  <defs
     id="defs2">
    <linearGradient
       id="linearGradient3"
       inkscape:collect="always">
      <stop
         style="stop-color:#34c685;stop-opacity:0.99995178;"
         offset="0"
         id="stop3" />
      <stop
         style="stop-color:#9fd7be;stop-opacity:0.99995178;"
         offset="1"
         id="stop4" />
    </linearGradient>
    <linearGradient
       inkscape:collect="always"
       xlink:href="#linearGradient3"
       id="linearGradient4"
       x1="11.9965"
       y1="3.4994888"
       x2="11.9965"
       y2="22.000538"
       gradientUnits="userSpaceOnUse" />
  </defs>
  <sodipodi:namedview
     id="namedview2"
     pagecolor="#ffffff"
     bordercolor="#111111"
     borderopacity="1"
     inkscape:showpageshadow="0"
     inkscape:pageopacity="0"
     inkscape:pagecheckerboard="1"
     inkscape:deskcolor="#d1d1d1"
     inkscape:zoom="16"
     inkscape:cx="-6.40625"
     inkscape:cy="8.03125"
     inkscape:window-width="3840"
     inkscape:window-height="2160"
     inkscape:window-x="2160"
     inkscape:window-y="2160"
     inkscape:window-maximized="1"
     inkscape:current-layer="g2" />
  <g
     fill="none"
     stroke="currentColor"
     stroke-linecap="round"
     stroke-linejoin="round"
     stroke-width="1.5"
     id="g2"
     style="fill:#42b883;fill-opacity:1">
    <path
       d="M7.5 3.5c-1.556.047-2.483.22-3.125.862c-.879.88-.879 2.295-.879 5.126v6.506c0 2.832 0 4.247.879 5.127C5.253 22 6.668 22 9.496 22h5c2.829 0 4.243 0 5.121-.88c.88-.879.88-2.294.88-5.126V9.488c0-2.83 0-4.246-.88-5.126c-.641-.642-1.569-.815-3.125-.862"
       id="path1"
       style="fill:url(#linearGradient4);fill-opacity:1" />
    <path
       d="M 7.496,3.75 C 7.496,2.784 8.28,2 9.246,2 h 5.5 c 2.333332,0 2.333332,3.5 0,3.5 h -5.5 C 8.2795017,5.5 7.496,4.7164983 7.496,3.75"
       id="path2"
       style="fill:#fffffd;fill-opacity:1"
       sodipodi:nodetypes="cssssc" />
  </g>
  <path
     d="m 13.627272,10.559091 h 3.5 m -9.9999992,1 c 0,0 0.4999995,0 0.9999995,1 0,0 1.588,-2.5 2.9999997,-2.9999997 m 2.5,6.9999997 h 3.5 m -8.9999997,0 h 1"
     style="fill:none;fill-opacity:1;stroke:#000000;stroke-linecap:round;stroke-linejoin:round;stroke-opacity:1;paint-order:normal"
     id="path1-7" />
</svg>
